<svg width="18" height="18" viewBox="0 0 18 18" fill="none" xmlns="http://www.w3.org/2000/svg">
<g id="ArrowCircleUpLeft">
<path id="Vector" d="M9 16.3125C10.4463 16.3125 11.8601 15.8836 13.0626 15.0801C14.2651 14.2766 15.2024 13.1346 15.7559 11.7984C16.3093 10.4622 16.4541 8.99189 16.172 7.5734C15.8898 6.15492 15.1934 4.85195 14.1707 3.82928C13.148 2.80661 11.8451 2.11016 10.4266 1.82801C9.00811 1.54585 7.53781 1.69067 6.20162 2.24413C4.86544 2.7976 3.72338 3.73486 2.91988 4.93739C2.11637 6.13993 1.6875 7.55372 1.6875 9C1.68954 10.9388 2.46062 12.7975 3.83154 14.1685C5.20246 15.5394 7.06123 16.3105 9 16.3125ZM9 2.8125C10.2238 2.8125 11.4201 3.17539 12.4376 3.85528C13.4551 4.53517 14.2482 5.50153 14.7165 6.63215C15.1848 7.76276 15.3074 9.00686 15.0686 10.2071C14.8299 11.4074 14.2406 12.5099 13.3752 13.3752C12.5099 14.2406 11.4074 14.8299 10.2071 15.0686C9.00686 15.3074 7.76276 15.1848 6.63214 14.7165C5.50152 14.2482 4.53517 13.4551 3.85528 12.4376C3.17539 11.4201 2.8125 10.2238 2.8125 9C2.81436 7.35954 3.46685 5.78681 4.62683 4.62683C5.78681 3.46685 7.35954 2.81436 9 2.8125ZM6.35203 7.14797C6.29977 7.09571 6.25831 7.03366 6.23003 6.96538C6.20174 6.8971 6.18718 6.82391 6.18718 6.75C6.18718 6.67609 6.20174 6.6029 6.23003 6.53462C6.25831 6.46634 6.29977 6.40429 6.35203 6.35203C6.40429 6.29977 6.46633 6.25831 6.53462 6.23003C6.6029 6.20175 6.67609 6.18719 6.75 6.18719C6.82391 6.18719 6.89709 6.20175 6.96538 6.23003C7.03366 6.25831 7.0957 6.29977 7.14797 6.35203L10.6875 9.89227V7.875C10.6875 7.72582 10.7468 7.58274 10.8522 7.47725C10.9577 7.37176 11.1008 7.3125 11.25 7.3125C11.3992 7.3125 11.5423 7.37176 11.6477 7.47725C11.7532 7.58274 11.8125 7.72582 11.8125 7.875V11.25C11.8125 11.3992 11.7532 11.5423 11.6477 11.6477C11.5423 11.7532 11.3992 11.8125 11.25 11.8125H7.875C7.72581 11.8125 7.58274 11.7532 7.47725 11.6477C7.37176 11.5423 7.3125 11.3992 7.3125 11.25C7.3125 11.1008 7.37176 10.9577 7.47725 10.8523C7.58274 10.7468 7.72581 10.6875 7.875 10.6875H9.89226L6.35203 7.14797Z" fill="black"/>
</g>
</svg>
