<svg width="1058" height="120" viewBox="0 0 1058 120" fill="none" xmlns="http://www.w3.org/2000/svg" preserveAspectRatio="none">
<g id="Subtract">
<mask id="path-1-inside-1_621_500" fill="white">
<path fill-rule="evenodd" clip-rule="evenodd" d="M0 4C0 1.79086 1.79086 0 4 0H1054C1056.21 0 1058 1.79086 1058 4V34.2943C1044.87 36.2271 1034.8 47.4475 1034.8 61C1034.8 74.5525 1044.87 85.7729 1058 87.7057V116C1058 118.209 1056.21 120 1054 120H4C1.79087 120 0 118.209 0 116V87.331C12.1271 84.6026 21.1802 73.8495 21.1802 61C21.1802 48.1505 12.1271 37.3974 0 34.669V4Z"/>
</mask>
<path fill-rule="evenodd" clip-rule="evenodd" d="M0 4C0 1.79086 1.79086 0 4 0H1054C1056.21 0 1058 1.79086 1058 4V34.2943C1044.87 36.2271 1034.8 47.4475 1034.8 61C1034.8 74.5525 1044.87 85.7729 1058 87.7057V116C1058 118.209 1056.21 120 1054 120H4C1.79087 120 0 118.209 0 116V87.331C12.1271 84.6026 21.1802 73.8495 21.1802 61C21.1802 48.1505 12.1271 37.3974 0 34.669V4Z" fill="url(#paint0_linear_621_500)"/>
<path d="M1058 34.2943L1058.15 35.2836L1059 35.1578V34.2943H1058ZM1058 87.7057H1059V86.8422L1058.15 86.7164L1058 87.7057ZM0 87.331L-0.219495 86.3553L-1 86.5309V87.331H0ZM0 34.669H-1V35.4691L-0.219495 35.6447L0 34.669ZM4 -1C1.23858 -1 -1 1.23858 -1 4H1C1 2.34315 2.34315 1 4 1V-1ZM1054 -1H4V1H1054V-1ZM1059 4C1059 1.23857 1056.76 -1 1054 -1V1C1055.66 1 1057 2.34315 1057 4H1059ZM1059 34.2943V4H1057V34.2943H1059ZM1035.8 61C1035.8 47.9571 1045.5 37.1462 1058.15 35.2836L1057.85 33.3049C1044.25 35.308 1033.8 46.9378 1033.8 61H1035.8ZM1058.15 86.7164C1045.5 84.8538 1035.8 74.0429 1035.8 61H1033.8C1033.8 75.0622 1044.25 86.692 1057.85 88.6951L1058.15 86.7164ZM1059 116V87.7057H1057V116H1059ZM1054 121C1056.76 121 1059 118.761 1059 116H1057C1057 117.657 1055.66 119 1054 119V121ZM4 121H1054V119H4V121ZM-1 116C-1 118.761 1.23858 121 4 121V119C2.34315 119 1 117.657 1 116H-1ZM-1 87.331V116H1V87.331H-1ZM20.1802 61C20.1802 73.3661 11.4668 83.7262 -0.219495 86.3553L0.219495 88.3066C12.7874 85.479 22.1802 74.3329 22.1802 61H20.1802ZM-0.219495 35.6447C11.4668 38.2739 20.1802 48.6339 20.1802 61H22.1802C22.1802 47.6671 12.7874 36.521 0.219495 33.6934L-0.219495 35.6447ZM-1 4V34.669H1V4H-1Z" fill="url(#paint1_linear_621_500)" mask="url(#path-1-inside-1_621_500)"/>
</g>
<defs>
<linearGradient id="paint0_linear_621_500" x1="-148.765" y1="-32.5" x2="1090.48" y2="115.472" gradientUnits="userSpaceOnUse">
<stop offset="0.120452" stop-color="#6575C6"/>
<stop offset="0.24836" stop-color="#D0D8FF"/>
<stop offset="1" stop-color="#FAFAFA"/>
</linearGradient>
<linearGradient id="paint1_linear_621_500" x1="0" y1="60" x2="1058" y2="60" gradientUnits="userSpaceOnUse">
<stop stop-color="#B5C1FF"/>
<stop offset="1" stop-color="#D9D9D9"/>
</linearGradient>
</defs>
</svg>
