<svg width="20" height="20" viewBox="0 0 20 20" fill="none" xmlns="http://www.w3.org/2000/svg">
<g id="Directions bus" clip-path="url(#clip0_7_1470)">
<path id="Vector" d="M3.33337 13.3334C3.33337 14.0667 3.65837 14.7251 4.16671 15.1834V16.6667C4.16671 17.1251 4.54171 17.5001 5.00004 17.5001H5.83337C6.29171 17.5001 6.66671 17.1251 6.66671 16.6667V15.8334H13.3334V16.6667C13.3334 17.1251 13.7084 17.5001 14.1667 17.5001H15C15.4584 17.5001 15.8334 17.1251 15.8334 16.6667V15.1834C16.3417 14.7251 16.6667 14.0667 16.6667 13.3334V5.00008C16.6667 2.08341 13.6834 1.66675 10 1.66675C6.31671 1.66675 3.33337 2.08341 3.33337 5.00008V13.3334ZM6.25004 14.1667C5.55837 14.1667 5.00004 13.6084 5.00004 12.9167C5.00004 12.2251 5.55837 11.6667 6.25004 11.6667C6.94171 11.6667 7.50004 12.2251 7.50004 12.9167C7.50004 13.6084 6.94171 14.1667 6.25004 14.1667ZM13.75 14.1667C13.0584 14.1667 12.5 13.6084 12.5 12.9167C12.5 12.2251 13.0584 11.6667 13.75 11.6667C14.4417 11.6667 15 12.2251 15 12.9167C15 13.6084 14.4417 14.1667 13.75 14.1667ZM15 9.16675H5.00004V5.00008H15V9.16675Z" fill="black"/>
</g>
<defs>
<clipPath id="clip0_7_1470">
<rect width="20" height="20" fill="white"/>
</clipPath>
</defs>
</svg>
