<svg width="20" height="20" viewBox="0 0 20 20" fill="none" xmlns="http://www.w3.org/2000/svg">
<g id="Flightsmode">
<path id="Vector" d="M5.70828 14.2916L3.62495 13.1458C3.47217 13.0624 3.38536 12.9409 3.36453 12.7812C3.3437 12.6214 3.38884 12.486 3.49995 12.3749L3.74995 12.1249C3.8055 12.0694 3.87147 12.0312 3.94786 12.0103C4.02425 11.9895 4.09717 11.986 4.16661 11.9999L5.99995 12.2499L9.24995 8.99992L3.58328 5.91659C3.37495 5.80547 3.25342 5.63186 3.2187 5.39575C3.18397 5.15964 3.24995 4.95825 3.41661 4.79159L3.62495 4.58325C3.72217 4.48603 3.82981 4.42353 3.94786 4.39575C4.06592 4.36797 4.18745 4.36797 4.31245 4.39575L11.8749 6.33325L15.1249 3.12492C15.3611 2.88881 15.6527 2.77075 15.9999 2.77075C16.3472 2.77075 16.6388 2.88881 16.8749 3.12492C17.1111 3.36103 17.2291 3.6527 17.2291 3.99992C17.2291 4.34714 17.1111 4.63881 16.8749 4.87492L13.6666 8.12492L15.6041 15.6458C15.6319 15.7846 15.6284 15.9201 15.5937 16.052C15.559 16.1839 15.493 16.2985 15.3958 16.3958L15.2916 16.4999C15.0972 16.6944 14.8715 16.7708 14.6145 16.7291C14.3576 16.6874 14.1666 16.5485 14.0416 16.3124L10.9999 10.7499L7.74995 13.9999L7.99995 15.7916C8.01384 15.8888 8.00689 15.9791 7.97911 16.0624C7.95134 16.1458 7.90272 16.2221 7.83328 16.2916L7.72911 16.3958C7.59022 16.5346 7.42356 16.5937 7.22911 16.5728C7.03467 16.552 6.88884 16.4513 6.79161 16.2708L5.70828 14.2916Z" fill="black"/>
</g>
</svg>
