<svg width="25" height="20" viewBox="0 0 25 20" fill="none" xmlns="http://www.w3.org/2000/svg">
<g id="India (IN)" clip-path="url(#clip0_632_114)">
<path id="Vector" d="M0 0.5H24.8462V6.83333H0V0.5Z" fill="#FF9933"/>
<path id="Vector_2" d="M0 6.8335H24.8462V13.1668H0V6.8335Z" fill="white"/>
<path id="Vector_3" d="M0 13.1665H24.8462V19.4998H0V13.1665Z" fill="#128807"/>
<g id="Group">
<path id="Vector_4" d="M12.4231 12.5335C13.7953 12.5335 14.9077 11.3993 14.9077 10.0001C14.9077 8.60101 13.7953 7.4668 12.4231 7.4668C11.0509 7.4668 9.93848 8.60101 9.93848 10.0001C9.93848 11.3993 11.0509 12.5335 12.4231 12.5335Z" fill="#000088"/>
<path id="Vector_5" d="M12.4231 12.2168C13.6237 12.2168 14.5971 11.2243 14.5971 10.0001C14.5971 8.77588 13.6237 7.78345 12.4231 7.78345C11.2224 7.78345 10.249 8.77588 10.249 10.0001C10.249 11.2243 11.2224 12.2168 12.4231 12.2168Z" fill="white"/>
<path id="Vector_6" d="M12.4231 10.4436C12.6632 10.4436 12.8579 10.2451 12.8579 10.0002C12.8579 9.75537 12.6632 9.55688 12.4231 9.55688C12.183 9.55688 11.9883 9.75537 11.9883 10.0002C11.9883 10.2451 12.183 10.4436 12.4231 10.4436Z" fill="#000088"/>
<g id="d">
<g id="c">
<g id="b">
<g id="a">
<path id="Vector_7" d="M14.564 10.4033C14.6252 10.4115 14.6813 10.3676 14.6894 10.3051C14.6975 10.2427 14.6544 10.1855 14.5932 10.1772C14.5319 10.169 14.4758 10.213 14.4677 10.2754C14.4596 10.3378 14.5027 10.3951 14.564 10.4033Z" fill="#000088"/>
<path id="Vector_8" d="M12.4232 12.2168L12.4977 10.8868L12.4232 10.2534L12.3486 10.8868L12.4232 12.2168Z" fill="#000088"/>
</g>
<g id="a_2">
<path id="Vector_9" d="M14.3892 10.9541C14.4464 10.9784 14.5118 10.9511 14.5352 10.8931C14.5587 10.8352 14.5313 10.7685 14.474 10.7442C14.4168 10.7199 14.3514 10.7472 14.3279 10.8051C14.3045 10.8631 14.3319 10.9298 14.3892 10.9541Z" fill="#000088"/>
<path id="Vector_10" d="M11.8615 12.1409L12.2708 10.8766L12.358 10.2451L12.1249 10.8366L11.8615 12.1409Z" fill="#000088"/>
</g>
</g>
<g id="b_2">
<g id="a_3">
<path id="Vector_11" d="M14.0797 11.4401C14.1289 11.4786 14.1991 11.4695 14.2365 11.4198C14.2738 11.3701 14.2643 11.2985 14.2151 11.26C14.1659 11.2214 14.0957 11.2305 14.0583 11.2802C14.0209 11.33 14.0305 11.4015 14.0797 11.4401Z" fill="#000088"/>
<path id="Vector_12" d="M11.3367 11.9193L12.0532 10.8064L12.2982 10.2198L11.9229 10.7296L11.3367 11.9193Z" fill="#000088"/>
</g>
<g id="a_4">
<path id="Vector_13" d="M13.6577 11.8283C13.6954 11.8784 13.7656 11.8881 13.8144 11.85C13.8632 11.8119 13.8722 11.7403 13.8344 11.6902C13.7966 11.64 13.7264 11.6303 13.6776 11.6684C13.6288 11.7066 13.6199 11.7781 13.6577 11.8283Z" fill="#000088"/>
<path id="Vector_14" d="M10.8863 11.5668L11.8613 10.6811L12.2471 10.1794L11.755 10.5728L10.8863 11.5668Z" fill="#000088"/>
</g>
</g>
</g>
<g id="c_2">
<g id="b_3">
<g id="a_5">
<path id="Vector_15" d="M13.1506 12.0924C13.174 12.1503 13.2394 12.1776 13.2967 12.1533C13.354 12.1289 13.3814 12.0622 13.358 12.0043C13.3346 11.9464 13.2692 11.9191 13.212 11.9435C13.1547 11.9678 13.1272 12.0345 13.1506 12.0924Z" fill="#000088"/>
<path id="Vector_16" d="M10.5399 11.1092L11.7069 10.5085L12.2083 10.1262L11.6332 10.3781L10.5399 11.1092Z" fill="#000088"/>
</g>
<g id="a_6">
<path id="Vector_17" d="M12.5949 12.2133C12.6027 12.2755 12.6588 12.319 12.7203 12.3106C12.7818 12.3021 12.8252 12.2449 12.8174 12.1827C12.8096 12.1205 12.7534 12.0769 12.692 12.0854C12.6305 12.0938 12.587 12.1511 12.5949 12.2133Z" fill="#000088"/>
<path id="Vector_18" d="M10.3228 10.5749L11.6022 10.3019L12.1834 10.0649L11.5642 10.157L10.3228 10.5749Z" fill="#000088"/>
</g>
</g>
<g id="b_4">
<g id="a_7">
<path id="Vector_19" d="M12.0282 12.1834C12.0199 12.2461 12.0626 12.3034 12.1236 12.3114C12.1846 12.3193 12.2407 12.275 12.249 12.2123C12.2573 12.1497 12.2146 12.0924 12.1536 12.0844C12.0926 12.0765 12.0364 12.1208 12.0282 12.1834Z" fill="#000088"/>
<path id="Vector_20" d="M10.2494 10.004L11.5531 10.0707L12.1744 9.9961L11.5537 9.92663L10.2494 10.004Z" fill="#000088"/>
</g>
<g id="a_8">
<path id="Vector_21" d="M11.4872 12.0042C11.4635 12.0625 11.4905 12.1292 11.5474 12.1532C11.6044 12.1772 11.6698 12.1494 11.6935 12.0911C11.7172 12.0328 11.6903 11.9661 11.6333 11.9422C11.5764 11.9182 11.511 11.946 11.4872 12.0042Z" fill="#000088"/>
<path id="Vector_22" d="M10.3233 9.42685L11.5636 9.84432L12.1829 9.93401L11.6025 9.69651L10.3233 9.42685Z" fill="#000088"/>
</g>
</g>
</g>
</g>
<g id="d_2">
<g id="c_3">
<g id="b_5">
<g id="a_9">
<path id="Vector_23" d="M11.0098 11.6883C10.9724 11.738 10.982 11.8095 11.0312 11.8481C11.0804 11.8866 11.1506 11.8776 11.1879 11.8278C11.2253 11.7781 11.2157 11.7065 11.1665 11.668C11.1173 11.6295 11.0471 11.6385 11.0098 11.6883Z" fill="#000088"/>
<path id="Vector_24" d="M10.5399 8.89105L11.6332 9.6221L12.2082 9.87401L11.7069 9.49175L10.5399 8.89105Z" fill="#000088"/>
</g>
<g id="a_10">
<path id="Vector_25" d="M10.6293 11.2582C10.5805 11.2963 10.5716 11.3679 10.6094 11.418C10.6472 11.4682 10.7174 11.478 10.7662 11.4399C10.815 11.4017 10.8238 11.3302 10.786 11.28C10.7482 11.2298 10.6781 11.2201 10.6293 11.2582Z" fill="#000088"/>
<path id="Vector_26" d="M10.8853 8.43207L11.7561 9.42644L12.2478 9.82132L11.8605 9.31992L10.8853 8.43207Z" fill="#000088"/>
</g>
</g>
<g id="b_6">
<g id="a_11">
<path id="Vector_27" d="M10.3711 10.7422C10.3143 10.7662 10.2874 10.8329 10.3112 10.8912C10.335 10.9495 10.4004 10.9774 10.4573 10.9535C10.5142 10.9296 10.541 10.8629 10.5172 10.8045C10.4934 10.7462 10.428 10.7183 10.3711 10.7422Z" fill="#000088"/>
<path id="Vector_28" d="M11.3357 8.08L11.9244 9.26992L12.2994 9.78088L12.0527 9.1945L11.3357 8.08Z" fill="#000088"/>
</g>
<g id="a_12">
<path id="Vector_29" d="M10.2525 10.1754C10.1914 10.1834 10.1486 10.2407 10.1568 10.3033C10.165 10.3659 10.2212 10.4101 10.2823 10.402C10.3433 10.394 10.3862 10.3367 10.3779 10.2741C10.3697 10.2115 10.3136 10.1673 10.2525 10.1754Z" fill="#000088"/>
<path id="Vector_30" d="M11.8596 7.85864L12.1268 9.16307L12.3593 9.75553L12.2695 9.12418L11.8596 7.85864Z" fill="#000088"/>
</g>
</g>
</g>
<g id="c_4">
<g id="b_7">
<g id="a_13">
<path id="Vector_31" d="M10.2818 9.59715C10.2204 9.58869 10.1642 9.63225 10.1564 9.69443C10.1486 9.75661 10.192 9.81388 10.2535 9.82234C10.3149 9.83079 10.3711 9.78724 10.3789 9.72505C10.3868 9.66287 10.3433 9.6056 10.2818 9.59715Z" fill="#000088"/>
<path id="Vector_32" d="M12.4192 7.78357L12.3536 9.11281L12.4268 9.74626L12.4951 9.11346L12.4192 7.78357Z" fill="#000088"/>
</g>
<g id="a_14">
<path id="Vector_33" d="M10.4572 9.0459C10.3999 9.02161 10.3345 9.0489 10.3111 9.10686C10.2876 9.16483 10.3151 9.23151 10.3723 9.25581C10.4295 9.28011 10.4949 9.25282 10.5184 9.19485C10.5418 9.13689 10.5144 9.0702 10.4572 9.0459Z" fill="#000088"/>
<path id="Vector_34" d="M12.9848 7.85912L12.5756 9.12337L12.4883 9.75491L12.7214 9.16336L12.9848 7.85912Z" fill="#000088"/>
</g>
</g>
<g id="b_8">
<g id="a_15">
<path id="Vector_35" d="M10.7665 8.55968C10.7173 8.52114 10.6471 8.5302 10.6097 8.57993C10.5723 8.62967 10.5819 8.70123 10.6311 8.73978C10.6803 8.77832 10.7505 8.76925 10.7879 8.71952C10.8253 8.66979 10.8157 8.59823 10.7665 8.55968Z" fill="#000088"/>
<path id="Vector_36" d="M13.5095 8.08072L12.7929 9.19357L12.548 9.78019L12.9233 9.27039L13.5095 8.08072Z" fill="#000088"/>
</g>
<g id="a_16">
<path id="Vector_37" d="M11.1885 8.17178C11.1507 8.12162 11.0805 8.11185 11.0318 8.14996C10.983 8.18807 10.9741 8.25964 11.0119 8.3098C11.0497 8.35997 11.1199 8.36974 11.1686 8.33163C11.2174 8.29351 11.2263 8.22195 11.1885 8.17178Z" fill="#000088"/>
<path id="Vector_38" d="M13.9598 8.43297L12.9849 9.31855L12.5992 9.82029L13.0913 9.42699L13.9598 8.43297Z" fill="#000088"/>
</g>
</g>
</g>
</g>
<g id="d_3">
<g id="c_5">
<g id="b_9">
<g id="a_17">
<path id="Vector_39" d="M11.6956 7.90759C11.6722 7.84965 11.6068 7.82241 11.5495 7.84674C11.4922 7.87107 11.4647 7.93775 11.4881 7.99569C11.5115 8.05362 11.577 8.08086 11.6342 8.05654C11.6915 8.03221 11.719 7.96552 11.6956 7.90759Z" fill="#000088"/>
<path id="Vector_40" d="M14.3063 8.89108L13.1393 9.49178L12.6379 9.87404L13.213 9.62212L14.3063 8.89108Z" fill="#000088"/>
</g>
<g id="a_18">
<path id="Vector_41" d="M12.2515 7.78697C12.2436 7.72478 12.1875 7.68122 12.126 7.68967C12.0646 7.69812 12.0211 7.75539 12.0289 7.81758C12.0367 7.87976 12.0929 7.92332 12.1544 7.91487C12.2158 7.90642 12.2593 7.84915 12.2515 7.78697Z" fill="#000088"/>
<path id="Vector_42" d="M14.5234 9.42531L13.244 9.69835L12.6628 9.93535L13.282 9.84328L14.5234 9.42531Z" fill="#000088"/>
</g>
</g>
<g id="b_10">
<g id="a_19">
<path id="Vector_43" d="M12.818 7.81687C12.8263 7.75418 12.7836 7.69691 12.7227 7.68897C12.6617 7.68102 12.6055 7.7254 12.5972 7.7881C12.5889 7.85079 12.6316 7.90805 12.6925 7.916C12.7535 7.92395 12.8097 7.87957 12.818 7.81687Z" fill="#000088"/>
<path id="Vector_44" d="M14.5967 9.99547L13.2931 9.92996L12.6719 10.0044L13.2924 10.0731L14.5967 9.99547Z" fill="#000088"/>
</g>
<g id="a_20">
<path id="Vector_45" d="M13.3588 7.99579C13.3825 7.93748 13.3556 7.87079 13.2987 7.84685C13.2418 7.8229 13.1764 7.85075 13.1527 7.90906C13.1289 7.96738 13.1558 8.03406 13.2127 8.05801C13.2696 8.08196 13.335 8.05411 13.3588 7.99579Z" fill="#000088"/>
<path id="Vector_46" d="M14.5227 10.5731L13.2825 10.1557L12.6632 10.0663L13.2435 10.3039L14.5227 10.5731Z" fill="#000088"/>
</g>
</g>
</g>
<g id="c_6">
<g id="b_11">
<g id="a_21">
<path id="Vector_47" d="M13.8357 8.31119C13.8734 8.26113 13.8644 8.18956 13.8155 8.15134C13.7666 8.11313 13.6964 8.12273 13.6587 8.17279C13.621 8.22285 13.6301 8.29441 13.679 8.33263C13.7278 8.37085 13.798 8.36125 13.8357 8.31119Z" fill="#000088"/>
<path id="Vector_48" d="M14.3056 11.1082L13.2137 10.3775L12.6384 10.1272L13.1388 10.5098L14.3056 11.1082Z" fill="#000088"/>
</g>
<g id="a_22">
<path id="Vector_49" d="M14.2163 8.7415C14.2654 8.70306 14.2748 8.6315 14.2374 8.58166C14.1999 8.53182 14.1297 8.52258 14.0806 8.56102C14.0315 8.59945 14.0221 8.67102 14.0596 8.72086C14.0971 8.7707 14.1672 8.77994 14.2163 8.7415Z" fill="#000088"/>
<path id="Vector_50" d="M13.9602 11.5674L13.0911 10.5733L12.5991 10.1797L12.9852 10.6813L13.9602 11.5674Z" fill="#000088"/>
</g>
</g>
<g id="b_12">
<g id="a_23">
<path id="Vector_51" d="M14.4745 9.25751C14.5316 9.23331 14.5589 9.16662 14.5353 9.10856C14.5118 9.0505 14.4464 9.02305 14.3892 9.04725C14.3321 9.07145 14.3048 9.13813 14.3284 9.19619C14.3519 9.25426 14.4173 9.28171 14.4745 9.25751Z" fill="#000088"/>
<path id="Vector_52" d="M13.5097 11.9196L12.9227 10.7298L12.5475 10.2196L12.7931 10.8062L13.5097 11.9196Z" fill="#000088"/>
</g>
<g id="a_24">
<path id="Vector_53" d="M14.5931 9.82436C14.6544 9.81604 14.6977 9.75877 14.6897 9.69646C14.6818 9.63414 14.6256 9.59037 14.5643 9.5987C14.503 9.60702 14.4597 9.66429 14.4677 9.7266C14.4756 9.78892 14.5318 9.83268 14.5931 9.82436Z" fill="#000088"/>
<path id="Vector_54" d="M12.9852 12.141L12.7206 10.8367L12.4877 10.2448L12.5758 10.8763L12.9852 12.141Z" fill="#000088"/>
</g>
</g>
</g>
</g>
</g>
</g>
<defs>
<clipPath id="clip0_632_114">
<rect width="24.8462" height="19" fill="white" transform="translate(0 0.5)"/>
</clipPath>
</defs>
</svg>
