<svg width="20" height="20" viewBox="0 0 20 20" fill="none" xmlns="http://www.w3.org/2000/svg">
<g id="Shield">
<path id="Vector" d="M10 17.7857H9.8125C9.75 17.7857 9.69375 17.7733 9.64375 17.7483C8.00625 17.2374 6.65625 16.2248 5.59375 14.7104C4.53125 13.1966 4 11.5237 4 9.69189V6.15902C4 5.84748 4.09075 5.56709 4.27225 5.31786C4.45325 5.06863 4.6875 4.88794 4.975 4.77578L9.475 3.09346C9.65 3.03115 9.825 3 10 3C10.175 3 10.35 3.03115 10.525 3.09346L15.025 4.77578C15.3125 4.88794 15.547 5.06863 15.7285 5.31786C15.9095 5.56709 16 5.84748 16 6.15902V9.69189C16 11.5237 15.4688 13.1966 14.4062 14.7104C13.3438 16.2248 11.9938 17.2374 10.3563 17.7483C10.2938 17.7733 10.175 17.7857 10 17.7857Z" fill="black"/>
</g>
</svg>
