<svg width="20" height="20" viewBox="0 0 20 20" fill="none" xmlns="http://www.w3.org/2000/svg">
<g id="tabler-icon-info-circle-filled">
<path id="Vector" d="M10.0001 1.66675C14.6026 1.66675 18.3334 5.39758 18.3334 10.0001C18.3351 12.188 17.4764 14.2888 15.9425 15.8489C14.4086 17.4091 12.3227 18.3035 10.1351 18.3389C7.94749 18.3744 5.8337 17.5481 4.25008 16.0384C2.66646 14.5288 1.74007 12.4569 1.67091 10.2701L1.66675 10.0001L1.67008 9.76675C1.79341 5.27258 5.47508 1.66675 10.0001 1.66675ZM10.0001 9.16675H9.16675L9.06925 9.17258C8.86671 9.19667 8.68003 9.29421 8.54459 9.44672C8.40915 9.59923 8.33434 9.79611 8.33434 10.0001C8.33434 10.2041 8.40915 10.4009 8.54459 10.5534C8.68003 10.706 8.86671 10.8035 9.06925 10.8276L9.16675 10.8334V13.3334L9.17258 13.4309C9.19452 13.6169 9.27848 13.7901 9.41092 13.9226C9.54337 14.055 9.71657 14.139 9.90258 14.1609L10.0001 14.1667H10.8334L10.9309 14.1609C11.1169 14.139 11.2901 14.055 11.4226 13.9226C11.555 13.7901 11.639 13.6169 11.6609 13.4309L11.6667 13.3334L11.6609 13.2359C11.641 13.0659 11.5692 12.9061 11.4553 12.7784C11.3414 12.6506 11.1909 12.561 11.0242 12.5217L10.9309 12.5051L10.8334 12.5001V10.0001L10.8276 9.90258C10.8056 9.71657 10.7217 9.54337 10.5892 9.41092C10.4568 9.27848 10.2836 9.19452 10.0976 9.17258L10.0001 9.16675ZM10.0084 6.66675L9.90258 6.67258C9.70004 6.69667 9.51337 6.79421 9.37793 6.94672C9.24248 7.09923 9.16768 7.29611 9.16768 7.50008C9.16768 7.70405 9.24248 7.90094 9.37793 8.05344C9.51337 8.20595 9.70004 8.30349 9.90258 8.32758L10.0001 8.33341L10.1059 8.32758C10.3085 8.30349 10.4951 8.20595 10.6306 8.05344C10.766 7.90094 10.8408 7.70405 10.8408 7.50008C10.8408 7.29611 10.766 7.09923 10.6306 6.94672C10.4951 6.79421 10.3085 6.69667 10.1059 6.67258L10.0084 6.66675Z" fill="black"/>
</g>
</svg>
