<svg width="24" height="24" viewBox="0 0 24 24" fill="none" xmlns="http://www.w3.org/2000/svg">
<g id="tabler-icon-briefcase">
<path id="Vector" d="M8.41176 7.52941V5.76471C8.41176 5.29668 8.59769 4.84782 8.92864 4.51687C9.25958 4.18592 9.70844 4 10.1765 4H13.7059C14.1739 4 14.6228 4.18592 14.9537 4.51687C15.2847 4.84782 15.4706 5.29668 15.4706 5.76471V7.52941M11.9412 11.9412V11.95M4 12.8235C6.46316 14.0647 9.18297 14.7113 11.9412 14.7113C14.6994 14.7113 17.4192 14.0647 19.8824 12.8235M4 9.29412C4 8.82609 4.18592 8.37723 4.51687 8.04628C4.84782 7.71534 5.29668 7.52941 5.76471 7.52941H18.1176C18.5857 7.52941 19.0345 7.71534 19.3655 8.04628C19.6964 8.37723 19.8824 8.82609 19.8824 9.29412V17.2353C19.8824 17.7033 19.6964 18.1522 19.3655 18.4831C19.0345 18.8141 18.5857 19 18.1176 19H5.76471C5.29668 19 4.84782 18.8141 4.51687 18.4831C4.18592 18.1522 4 17.7033 4 17.2353V9.29412Z" stroke="black" stroke-linecap="round" stroke-linejoin="round"/>
</g>
</svg>
