<svg width="20" height="20" viewBox="0 0 20 20" fill="none" xmlns="http://www.w3.org/2000/svg">
<g id="Train" clip-path="url(#clip0_7_1467)">
<path id="Vector" d="M10 1.66675C6.66671 1.66675 3.33337 2.08341 3.33337 5.00008V12.9167C3.33337 14.5251 4.64171 15.8334 6.25004 15.8334L5.00004 17.0834V17.5001H6.85837L8.52504 15.8334H11.6667L13.3334 17.5001H15V17.0834L13.75 15.8334C15.3584 15.8334 16.6667 14.5251 16.6667 12.9167V5.00008C16.6667 2.08341 13.6834 1.66675 10 1.66675ZM6.25004 14.1667C5.55837 14.1667 5.00004 13.6084 5.00004 12.9167C5.00004 12.2251 5.55837 11.6667 6.25004 11.6667C6.94171 11.6667 7.50004 12.2251 7.50004 12.9167C7.50004 13.6084 6.94171 14.1667 6.25004 14.1667ZM9.16671 8.33341H5.00004V5.00008H9.16671V8.33341ZM10.8334 8.33341V5.00008H15V8.33341H10.8334ZM13.75 14.1667C13.0584 14.1667 12.5 13.6084 12.5 12.9167C12.5 12.2251 13.0584 11.6667 13.75 11.6667C14.4417 11.6667 15 12.2251 15 12.9167C15 13.6084 14.4417 14.1667 13.75 14.1667Z" fill="black"/>
</g>
<defs>
<clipPath id="clip0_7_1467">
<rect width="20" height="20" fill="white"/>
</clipPath>
</defs>
</svg>
